<?xml version="1.0" standalone="no"?>
<!DOCTYPE svg PUBLIC "-//W3C//DTD SVG 20010904//EN"
 "http://www.w3.org/TR/2001/REC-SVG-20010904/DTD/svg10.dtd">
<svg version="1.0" xmlns="http://www.w3.org/2000/svg"
 width="320.000000pt" height="326.000000pt" viewBox="0 0 320.000000 326.000000"
 preserveAspectRatio="xMidYMid meet">
<metadata>
Created by potrace 1.16, written by Peter Selinger 2001-2019
</metadata>
<g transform="translate(0.000000,326.000000) scale(0.100000,-0.100000)"
fill="#000000" stroke="none">
<path d="M1475 2976 c-31 -14 -921 -529 -988 -572 -21 -14 -47 -39 -57 -57
-19 -31 -20 -54 -20 -640 0 -653 -1 -635 52 -683 19 -18 537 -322 1093 -642
72 -41 183 -106 247 -143 64 -38 119 -69 121 -69 3 0 7 98 9 217 3 120 8 225
12 234 8 17 34 33 426 262 215 125 247 147 267 182 l23 40 0 599 c0 598 0 598
-22 637 -12 22 -42 52 -67 68 -70 44 -920 535 -968 560 -48 24 -85 26 -128 7z
m-136 -737 c53 -30 84 -79 86 -141 l2 -51 218 -127 218 -128 28 20 c70 52 187
24 234 -56 79 -135 -58 -301 -200 -242 -75 32 -108 81 -107 161 l0 50 -216
124 -215 125 -40 -23 c-140 -81 -300 54 -243 203 9 24 24 51 34 59 55 50 139
61 201 26z m478 -700 c19 -12 32 -23 31 -25 -2 -2 -94 -55 -203 -119 -110 -64
-204 -120 -208 -125 -5 -4 -10 -28 -12 -52 -6 -94 -73 -160 -163 -160 -215 0
-230 312 -17 330 45 4 62 0 98 -21 l44 -26 189 109 c104 60 193 110 198 110 5
0 24 -10 43 -21z"/>
</g>
</svg>
