<?xml version="1.0" standalone="no"?>
<!DOCTYPE svg PUBLIC "-//W3C//DTD SVG 20010904//EN"
 "http://www.w3.org/TR/2001/REC-SVG-20010904/DTD/svg10.dtd">
<svg version="1.0" xmlns="http://www.w3.org/2000/svg"
 width="305.000000pt" height="354.000000pt" viewBox="0 0 305.000000 354.000000"
 preserveAspectRatio="xMidYMid meet">
<metadata>
Created by potrace 1.16, written by Peter Selinger 2001-2019
</metadata>
<g transform="translate(0.000000,354.000000) scale(0.100000,-0.100000)"
fill="#000000" stroke="none">
<path d="M705 3339 c-71 -5 -189 -16 -262 -24 -73 -8 -139 -15 -148 -15 -13 0
-15 -159 -15 -1560 0 -909 4 -1560 9 -1560 5 0 71 -6 147 -14 255 -27 531 -39
777 -33 207 4 262 8 382 31 630 120 1074 490 1260 1050 198 592 61 1222 -355
1636 -130 130 -247 213 -413 295 -182 90 -356 145 -572 181 -119 19 -605 27
-810 13z m775 -414 c352 -63 628 -226 792 -468 148 -218 215 -503 190 -809
-14 -168 -38 -281 -84 -405 -140 -373 -443 -609 -883 -689 -81 -15 -149 -18
-360 -17 -143 0 -291 5 -330 9 l-70 9 -3 1183 c-2 941 0 1184 10 1187 75 27
586 27 738 0z"/>
</g>
</svg>
