<?xml version="1.0" standalone="yes"?>
<svg xmlns="http://www.w3.org/2000/svg" width="583" height="414">
<path style="fill:#adb3cd; stroke:none;" d="M58 284C83.2008 284 113.202 278.527 131.572 259.714C135.763 255.421 139.276 250.575 141.546 245C142.862 241.769 143.201 236.07 146.314 234.028C151.149 230.856 161.608 234.292 167 234.831C181.666 236.297 199.172 238.535 213 232.085C225.76 226.133 228.414 212.157 234.876 201C241.82 189.01 251.918 178.465 262 169.09C271.72 160.051 282.702 153.279 295 148.4C301.139 145.965 310.494 145.077 315.722 141.143C325.066 134.112 324.874 106.719 321.289 97C311.836 71.3685 291.478 56.7738 268 44.7554C216.976 18.6366 167.564 17.9806 114 37.9499C91.9338 46.1764 63.2183 57.1508 51.3241 79.0038C33.2428 112.224 34.0958 152.745 57.2361 183C65.707 194.075 86.8636 204.236 89.6852 218C95.6457 247.077 70.7004 262.003 58 284z"/>
<path style="fill:#adb3cd; stroke:none;" d="M516 373C509.149 369.759 502.647 364.868 497 359.826C488.772 352.48 479.211 343.398 477.326 332C475.551 321.268 482.413 312.641 487.6 304C497.093 288.187 508.139 272.953 513.211 255C519.368 233.209 511.221 207.621 498.572 190C466.98 145.991 413.466 136.747 363 138.961C325.267 140.615 287.994 150.075 260.09 177.17C252.175 184.855 245.528 194.311 240.309 204C208.016 263.96 254.766 319.883 310 341.189C330.602 349.136 358.052 352.176 380 349.826C392.178 348.523 403.515 342.97 416 344.059C424.881 344.833 431.204 358.11 437.015 363.996C452.725 379.91 473.36 390.73 496 385.346C503.291 383.612 512.444 379.96 516 373z"/>
</svg>
