<?xml version="1.0" standalone="yes"?>
<svg xmlns="http://www.w3.org/2000/svg" width="149" height="152">
<path style="fill:#838385; stroke:none;" d="M17 34L17 37C28.516 37.2786 29.3041 48.7103 31.6265 58C37.5443 81.6709 46.7438 105.818 50 130L55 130C58.2638 105.782 69.4353 80.2483 77 57L90.7199 99L100 130L105 130C107.073 106.256 119.26 80.9229 125.859 58C128.578 48.5549 129.646 37.9368 141 37L141 34L115 34L115 37L127 39L107 108L106 108C102.09 89.1051 94.847 70.4796 89.2801 52C88.3697 48.978 85.7642 34.3342 81.1698 35.7515C76.8429 37.0863 75.272 49.1825 74 53C68.2038 70.3954 64.4174 89.2457 57 106C52.7056 90.7543 48.7194 75.3642 44.8735 60C43.5547 54.7316 39.8053 46.5213 41.1813 41.1088C42.2924 36.7386 47.4348 37.0323 51 37L51 34L17 34z"/>
</svg>
