<?xml version="1.0" standalone="no"?>
<!DOCTYPE svg PUBLIC "-//W3C//DTD SVG 20010904//EN"
 "http://www.w3.org/TR/2001/REC-SVG-20010904/DTD/svg10.dtd">
<svg version="1.0" xmlns="http://www.w3.org/2000/svg"
 width="56.000000pt" height="64.000000pt" viewBox="0 0 56.000000 64.000000"
 preserveAspectRatio="xMidYMid meet">
<metadata>
Created by potrace 1.16, written by Peter Selinger 2001-2019
</metadata>
<g transform="translate(0.000000,64.000000) scale(0.100000,-0.100000)"
fill="#000000" stroke="none">
<path d="M110 512 c0 -5 34 -81 75 -169 65 -140 75 -168 75 -217 l0 -56 36 0
37 0 -5 72 c-5 64 -15 93 -75 223 l-70 150 -36 3 c-20 2 -37 -1 -37 -6z"/>
<path d="M360 418 c-25 -56 -46 -105 -48 -110 -2 -4 14 -8 35 -8 42 0 33 -13
119 188 l14 32 -38 0 -38 0 -44 -102z"/>
<path d="M514 246 c-86 -38 -84 -144 3 -177 13 -5 29 -9 34 -9 15 0 10 56 -6
70 -19 16 -19 44 0 60 15 13 21 70 8 70 -5 -1 -22 -7 -39 -14z"/>
</g>
</svg>
